<?xml version="1.0" standalone="no"?>
<!DOCTYPE svg PUBLIC "-//W3C//DTD SVG 20010904//EN"
 "http://www.w3.org/TR/2001/REC-SVG-20010904/DTD/svg10.dtd">
<svg version="1.0" xmlns="http://www.w3.org/2000/svg"
 width="672.000000pt" height="672.000000pt" viewBox="0 0 672.000000 672.000000"
 preserveAspectRatio="xMidYMid meet">
<metadata>
Created by potrace 1.11, written by Peter Selinger 2001-2013
</metadata>
<g transform="translate(0.000000,672.000000) scale(0.100000,-0.100000)"
fill="#000000" stroke="none">
<path d="M3030 6690 c-306 -27 -429 -46 -657 -105 -164 -43 -306 -96 -448
-168 -535 -270 -787 -698 -811 -1377 -3 -80 -8 -152 -10 -160 -3 -8 -9 -63
-14 -122 -7 -88 -14 -117 -39 -167 -38 -75 -97 -284 -81 -289 6 -2 0 -12 -13
-23 -27 -21 -37 -53 -69 -231 -13 -69 -25 -123 -28 -118 -8 14 -84 -44 -99
-75 -18 -38 -20 -201 -3 -233 7 -12 30 -33 51 -46 34 -22 39 -30 45 -78 3 -29
19 -96 35 -148 55 -185 52 -215 -42 -323 -97 -111 -357 -467 -391 -535 -18
-37 -39 -93 -46 -125 -11 -46 -17 -57 -33 -57 -19 0 -19 -6 -15 -152 l4 -153
62 -125 c79 -162 116 -202 259 -291 64 -40 131 -85 149 -101 49 -43 74 -103
74 -177 0 -90 27 -299 55 -423 24 -106 59 -194 95 -233 10 -11 30 -47 45 -80
71 -152 348 -347 641 -448 282 -98 634 -125 819 -63 79 27 161 69 200 104 11
9 42 44 69 77 56 69 85 91 134 100 25 5 37 13 45 35 9 23 17 28 43 28 30 0 32
-2 38 -49 5 -34 16 -60 36 -82 26 -29 33 -32 77 -29 26 2 60 3 76 2 35 -1 119
-1 155 0 15 1 49 0 75 -2 44 -3 51 0 77 29 20 23 31 48 36 83 6 48 8 50 39 50
26 0 34 -5 39 -24 3 -14 18 -28 36 -35 16 -6 44 -16 61 -22 17 -7 49 -37 74
-69 62 -81 109 -118 200 -161 147 -69 305 -84 542 -54 280 37 509 122 743 275
126 83 218 176 258 262 17 36 36 69 42 73 21 13 68 122 90 208 25 104 59 355
60 447 1 115 44 173 194 261 165 97 217 155 303 335 l47 99 4 153 c4 147 3
152 -16 152 -17 0 -23 10 -31 53 -14 62 -48 140 -92 205 -47 68 -311 417 -368
485 -72 86 -74 115 -21 298 30 101 46 184 41 209 -2 8 0 12 4 8 11 -11 63 19
82 48 13 20 17 48 16 119 0 110 -17 148 -80 182 l-40 23 -31 157 c-26 136 -34
161 -56 180 -14 12 -21 23 -15 25 15 5 -43 213 -80 287 -35 68 -47 155 -55
381 -2 58 -9 125 -14 150 -6 25 -15 90 -22 145 -42 383 -155 633 -394 871
-241 240 -563 396 -1003 488 -156 33 -309 52 -558 70 -255 19 -343 18 -595 -4z
m-946 -2318 c3 -5 -1 -9 -9 -9 -8 0 -12 4 -9 9 3 4 7 8 9 8 2 0 6 -4 9 -8z
m53 2 c-3 -3 -12 -4 -19 -1 -8 3 -5 6 6 6 11 1 17 -2 13 -5z m53 2 c0 -2 -9
-6 -20 -9 -11 -3 -18 -1 -14 4 5 9 34 13 34 5z m208 -3 c-38 -2 -98 -2 -135 0
-38 2 -7 3 67 3 74 0 105 -1 68 -3z m129 1 c-3 -3 -12 -4 -19 -1 -8 3 -5 6 6
6 11 1 17 -2 13 -5z m170 0 c-3 -3 -12 -4 -19 -1 -8 3 -5 6 6 6 11 1 17 -2 13
-5z m70 0 c-3 -3 -12 -4 -19 -1 -8 3 -5 6 6 6 11 1 17 -2 13 -5z m1326 -1 c-7
-2 -19 -2 -25 0 -7 3 -2 5 12 5 14 0 19 -2 13 -5z m124 1 c-3 -3 -12 -4 -19
-1 -8 3 -5 6 6 6 11 1 17 -2 13 -5z m46 -1 c-7 -2 -19 -2 -25 0 -7 3 -2 5 12
5 14 0 19 -2 13 -5z m219 0 c-40 -2 -103 -2 -140 0 -37 2 -4 3 73 3 77 0 107
-2 67 -3z m211 -10 c-7 -2 -19 -2 -25 0 -7 3 -2 5 12 5 14 0 19 -2 13 -5z m74
1 c-3 -3 -12 -4 -19 -1 -8 3 -5 6 6 6 11 1 17 -2 13 -5z m-3007 -2258 c0 -2
-7 -7 -16 -10 -8 -3 -12 -2 -9 4 6 10 25 14 25 6z"/>
</g>
</svg>
